<svg width="24" height="24" viewBox="0 0 24 24" fill="none" xmlns="http://www.w3.org/2000/svg">
<path d="M20 6.58579C20 6.851 19.8946 7.10536 19.7071 7.29289L15.2929 11.7071C15.1054 11.8946 15 12.149 15 12.4142V17.6396C15 17.8549 14.8624 18.0462 14.6582 18.1143L9.6582 19.7803C9.33455 19.8882 9.00023 19.6477 9 19.3066V12.4142C9 12.149 8.89464 11.8946 8.70711 11.7071L4.29289 7.29289C4.10536 7.10536 4 6.851 4 6.58579V5C4 4.44772 4.44772 4 5 4H19C19.5523 4 20 4.44772 20 5V6.58579Z" fill="#D9D9D9"/>
</svg>
